<?xml version="1.0" encoding="UTF-8" standalone="no"?>
<svg width="1024" height="1024" viewBox="0 0 1024 1024" xmlns="http://www.w3.org/2000/svg">
  <!-- Background -->
  <rect width="1024" height="1024" fill="#1a1a1a"/>

  <!-- Left card (red Ace) - rotated slightly left -->
  <g transform="translate(512, 512) rotate(-15) translate(-512, -512)">
    <rect x="140" y="180" width="400" height="664" rx="40" ry="40" fill="#ffffff" stroke="#d40000" stroke-width="12"/>
    <text x="240" y="620" font-family="Arial, sans-serif" font-size="280" font-weight="bold" fill="#d40000">A</text>
    <!-- Card suit (heart) -->
    <path d="M 240 360 L 260 340 Q 280 320 300 340 Q 320 360 300 380 L 240 440 L 180 380 Q 160 360 180 340 Q 200 320 220 340 Z" fill="#d40000"/>
  </g>

  <!-- Right card (black King) - rotated slightly right -->
  <g transform="translate(512, 512) rotate(15) translate(-512, -512)">
    <rect x="484" y="180" width="400" height="664" rx="40" ry="40" fill="#ffffff" stroke="#000000" stroke-width="12"/>
    <text x="570" y="620" font-family="Arial, sans-serif" font-size="280" font-weight="bold" fill="#000000">K</text>
    <!-- Card suit (spade) -->
    <path d="M 684 360 L 684 320 L 724 360 Q 744 380 724 400 L 704 420 L 704 460 L 664 460 L 664 420 L 644 400 Q 624 380 644 360 Z" fill="#000000"/>
  </g>

  <!-- Center card (blue question mark) - front and center -->
  <rect x="312" y="160" width="400" height="664" rx="40" ry="40" fill="#ffffff" stroke="#0066cc" stroke-width="12"/>
  <text x="420" y="620" font-family="Arial, sans-serif" font-size="320" font-weight="bold" fill="#0066cc">?</text>

  <!-- Bottom text -->
  <text x="512" y="950" font-family="Arial, sans-serif" font-size="72" font-weight="bold" fill="#ffffff" text-anchor="middle">In-Between</text>
</svg>
